<svg xmlns="http://www.w3.org/2000/svg" viewBox="0 0 420 180">
<defs><linearGradient id="g" x1="0" y1="0" x2="1" y2="1"><stop stop-color="#29c5f6"/><stop offset=".55" stop-color="#0877ee"/><stop offset="1" stop-color="#08245f"/></linearGradient></defs>
<rect width="420" height="180" fill="white"/>
<g transform="translate(22 16)"><path fill="url(#g)" d="M70 0C55 29 18 61 18 96c0 29 22 52 52 52s52-23 52-52C122 61 85 29 70 0Z"/><path d="M25 103c28-5 39-28 57-36 14-7 25-2 34 3-12 10-19 22-29 34-11 14-29 25-48 18-6-5-11-12-14-19Z" fill="#fff"/></g>
<text x="150" y="92" font-family="Arial,sans-serif" font-size="54" font-weight="800" fill="#08245f">Sahreej</text>
<text x="153" y="122" font-family="Arial,sans-serif" font-size="15" font-weight="700" letter-spacing="3" fill="#0877ee">WATER TANKER DELIVERY</text>
</svg>